#tb 0: 1/25
0,          0,          0,        1,   138240, 0xd2f649b4
0,          1,          1,        1,   138240, 0x807c0070
0,          2,          2,        1,   138240, 0x408a2b47
0,          3,          3,        1,   138240, 0x42f1b93b
0,          4,          4,        1,   138240, 0x0bc65a25
0,          5,          5,        1,   138240, 0x7878deff
0,          6,          6,        1,   138240, 0x9977bb2e
0,          7,          7,        1,   138240, 0x77f95ad2
0,          8,          8,        1,   138240, 0xd345ece5
0,          9,          9,        1,   138240, 0x4c9e16a4
0,         10,         10,        1,   138240, 0xa9836ea1
0,         11,         11,        1,   138240, 0xae137183
0,         12,         12,        1,   138240, 0xc637064c
0,         13,         13,        1,   138240, 0x3b0d2e1d
0,         14,         14,        1,   138240, 0xf96b06f8
0,         15,         15,        1,   138240, 0x58378739
0,         16,         16,        1,   138240, 0xf29c577a
0,         17,         17,        1,   138240, 0xe0ee0c00
0,         18,         18,        1,   138240, 0x5981fcf0
0,         19,         19,        1,   138240, 0x3f6c2866
0,         20,         20,        1,   138240, 0x295456f3
0,         21,         21,        1,   138240, 0xf837c2b4
0,         22,         22,        1,   138240, 0x333fc3d9
0,         23,         23,        1,   138240, 0xc5474d22
0,         24,         24,        1,   138240, 0xcfe15488
0,         25,         25,        1,   138240, 0x8abf7da6
0,         26,         26,        1,   138240, 0xa350d140
0,         27,         27,        1,   138240, 0xe7d50176
0,         28,         28,        1,   138240, 0xfc3acf0c
0,         29,         29,        1,   138240, 0x2231278d
0,         30,         30,        1,   138240, 0x0e00e5d1
0,         31,         31,        1,   138240, 0x1a4cba50
0,         32,         32,        1,   138240, 0x43806d27
0,         33,         33,        1,   138240, 0x7f04a823
0,         34,         34,        1,   138240, 0xd8b49476
0,         35,         35,        1,   138240, 0xa3059456
0,         36,         36,        1,   138240, 0x9c81e4ac
0,         37,         37,        1,   138240, 0x1bc46124
0,         38,         38,        1,   138240, 0xc5571fd8
0,         39,         39,        1,   138240, 0x791f817c
0,         40,         40,        1,   138240, 0x1c5caa85
0,         41,         41,        1,   138240, 0xedee853c
0,         42,         42,        1,   138240, 0x15f48fab
0,         43,         43,        1,   138240, 0x34166551
0,         44,         44,        1,   138240, 0x9587681b
